<svg xmlns="http://www.w3.org/2000/svg" xmlns:xlink="http://www.w3.org/1999/xlink" height="800" width="1200" viewBox="-4.687095 -7.508175 40.62149 45.04905"><defs><path id="a" d="M0 0h118.2v113.6H0z"/></defs><g transform="translate(0 -.024) scale(.26458)"><clipPath id="b"><use height="100%" width="100%" xlink:href="#a" overflow="visible"/></clipPath><path d="M58.5 62.3c8.1 0 15.5 3.3 20.7 8.7l.8-.8c-5.5-5.6-13.1-9.1-21.6-9.1-8.5 0-16 3.5-21.4 9.1l.8.8c5.3-5.4 12.6-8.7 20.7-8.7m0 12.3c5 0 9.4 2.2 12.5 5.7l.9-.8c-3.3-3.7-8-6.1-13.4-6.1s-10.1 2.3-13.4 6.1l.9.8c3.1-3.5 7.5-5.7 12.5-5.7m16.3-5.2c-.3-.3-.6-.2-.8 0l-6.6 4.3 1.4.8 4.7-3.1-.7 2.6-.6-.5-1.3.8 1.5 1.1-.4 1.5 1.2 1.1 2.2-7.5c.1-.3.1-.5-.2-.8zM46 74.6c.4-.3.7-.8.7-1.2.1-.5-.1-.9-.6-1.5l-2.6-3.2 1.2-.9 2.9 3.5c.6.7.8 1.5.8 2.3-.1.9-.5 1.6-1.3 2.3-.8.6-1.6.9-2.5.8-.8-.1-1.5-.5-2.1-1.2L39.6 72l1.2-.9 2.6 3.2c.5.6.8.9 1.4.9.3-.1.8-.3 1.2-.6m6.3-8.3l.3 1.7 3.4-.7.3 1.4-3.4.7.1.6c.2.8.5.9 1.2.8l2.7-.6.3 1.4-2.8.6c-1.3.3-2.5-.1-2.8-1.7l-1-4.8c-.1-.4.1-.6.4-.7l4.6-.9.3 1.4zm10 5.8l-.9-.2c-.3-.1-.5-.3-.4-.7l1.2-4.7c.4-1.6 1.6-1.9 2.9-1.6l2.8.7-.3 1.4-2.7-.7c-.7-.2-1-.1-1.2.7l-.2.7 3.4.9-.4 1.4-3.4-.9zm28.2 39.7h.4c.2 0 .5 0 .5-.3 0-.2-.2-.3-.4-.3h-.4v.6zm0 .2v.8h-.3v-1.9h.7c.5 0 .7.2.7.5s-.2.5-.5.5l.5.9h-.3l-.5-.8zm-1.1-.1c0 .8.6 1.4 1.4 1.4.8 0 1.4-.6 1.4-1.4 0-.8-.6-1.4-1.4-1.4-.8 0-1.4.6-1.4 1.4m1.4 1.7c-.9 0-1.7-.7-1.7-1.7s.8-1.7 1.7-1.7c.9 0 1.7.7 1.7 1.7s-.8 1.7-1.7 1.7m-9.1-12.1v7.3c0 .4-.2.6-.6.6v.4h7.4c0-.8 0-1.5.2-2.7h-.5c-.2 1.2-.5 1.4-1.2 1.4h-3.2v-3h1.9c.6 0 .7.2.8.7h.4c0-.3-.1-1-.1-1.3 0-.4 0-1 .1-1.3h-.4c-.1.5-.2.7-.8.7h-1.9v-2.7h3c.8 0 1 .3 1.1 1h.4c-.1-.8-.1-1.4-.1-2.2h-7.1v.4c.4.2.6.4.6.7m-11.3 0v5.2c0 2.4 1.3 3.2 3.9 3.2 2.5 0 3.9-.8 3.9-3.4v-5c0-.4.2-.6.6-.6v-.4c-.5 0-1 .1-1.6.1-.7 0-1.3 0-1.9-.1v.4c.6 0 .8.1.8.7v5.2c0 1.6-.7 1.9-1.8 1.9s-1.8-.3-1.8-1.9v-5.2c0-.5.2-.7.8-.7v-.4c-.6 0-1.1.1-1.9.1-.6 0-1.2 0-1.6-.1v.4c.4 0 .6.2.6.6m-5.6 5v1c0 .6-.5 1.1-1.5 1.1-1.6 0-2.6-2-2.6-3.7 0-1.8 1-3.3 2.9-3.3 1.2 0 2.3.6 2.5 1.9h.4c-.1-1-.1-1.8-.1-2.4-.8-.5-1.8-.7-2.8-.7-3 0-5.1 1.8-5.1 4.9 0 2.5 1.7 4.7 4.3 4.7 1 0 1.9-.3 2.8-1.1l.3.9h.8v-3.1c0-.6.3-.8.7-.8v-.4c-.6 0-1.2.1-1.9.1-.6 0-1.2 0-1.7-.1v.5c.8-.1 1-.1 1 .5m-11.3-.7h-2c.4-1 .8-2.1 1.1-3.2.4 1.4.6 2.2.9 3.2m-5.4 3.6v.4c.5 0 1-.1 1.5-.1s1 0 1.4.1v-.4c-.5 0-.7-.2-.7-.4 0-.1 0-.3.1-.5l.6-1.6h2.7l.4 1.4c.1.2.1.5.1.7 0 .3-.2.4-.7.5v.4c.6 0 1.2-.1 1.8-.1.6 0 1.2 0 1.8.1v-.4c-.4-.1-.6-.3-.8-.9l-2.6-8c-.4 0-.9.1-1.3.1s-.9 0-1.3-.1v.4c.4 0 .5.2.5.4 0 .1-.1.3-.2.5l-2.7 6.9c0 .3-.2.5-.6.6m-8.6-7.9v7.3c0 .4-.2.6-.6.6v.4h7.4c0-.8 0-1.5.2-2.7H46c-.2 1.2-.5 1.4-1.2 1.4h-3.2v-2.9h1.9c.6 0 .7.2.8.7h.4c0-.3-.1-1-.1-1.3 0-.4 0-1 .1-1.3h-.4c-.1.5-.2.7-.8.7h-1.9v-2.7h3c.8 0 1 .3 1.1 1h.4c-.1-.8-.1-1.4-.1-2.2h-7.1v.4c.5.1.6.3.6.6m-8.9 0v7.3c0 .4-.2.6-.6.6v.4h7c0-.9.2-1.8.3-2.7h-.5c-.2 1.1-.6 1.5-1.5 1.5h-2.6v-6.9c0-.4.1-.7.8-.8v-.4c-.4 0-1.3.1-1.8.1s-1.1 0-1.7-.1v.4c.4 0 .6.2.6.6M11 94.3l.2-2.3c-1.1.9-2.7 1.5-3.8 1.5-2.6 0-4.5-2.6-4.5-4.9 0-3 1.8-4.8 4-4.8 1.7 0 2.9.9 3.2 2.6h.5c-.1-1.3-.2-2.6-.2-4-.5-.2-1.6-.5-3.3-.5-4.7 0-7.1 3.4-7.1 6.9 0 3.4 2.4 6.8 6.8 6.8 1.1 0 2.9-.4 4.2-1.3m32-8.4l-.4 7.6c0 .8-.3.9-1 1v.5c.6-.1 1.2-.1 1.9-.1s1.4.1 2.1.1v-.5c-1.1-.1-1.2-.3-1.2-1.2 0-.5 0-1 .1-1.9l.1-5.3 3.5 9h1.5l3-8.9.4 5.4c.1.6.1 1.4.1 1.9 0 .8-.2 1-1.1 1.1v.5c.7-.1 1.5-.1 2.3-.1.8 0 1.6.1 2.4.1v-.5c-.4-.1-.9-.1-.9-.6l-.6-7.8c-.1-.6-.1-1.4-.1-1.9s.1-.7.7-.7V83c-.6.1-1.3.1-1.9.1-.6 0-1.3-.1-1.9-.1l-2.8 8.4-3.1-8.4c-.7.1-1.3.1-2 .1s-1.3-.1-1.9-.1v.5c.7.1.8.2.8.7.1.7 0 1.2 0 1.7m-15.5 9v-.5c.5-.1.8-.4.9-.8l3.6-9c.1-.3.2-.5.2-.7 0-.2-.2-.5-.7-.5V83c.6.1 1.1.1 1.7.1.6 0 1.1-.1 1.7-.1l3.3 10.3c.3.8.5 1 1.1 1.2v.5c-.8-.1-1.5-.1-2.3-.1-.8 0-1.6.1-2.3.1v-.5c.7-.1.9-.3.9-.7 0-.3-.1-.7-.2-.9l-.6-1.8h-3.5l-.8 2.1c-.1.3-.1.5-.1.6 0 .3.3.5.9.6v.5c-.6-.1-1.3-.1-1.9-.1-.7 0-1.3.1-1.9.1m4.3-5.2h2.6c-.4-1.2-.7-2.3-1.1-4.2-.4 1.5-1 3-1.5 4.2m-17.3-5.5v9.5c0 .5-.2.7-.8.8v.5c.8-.1 1.5-.1 2.2-.1.7 0 1.4.1 2.2.1v-.5c-.6 0-.8-.3-.8-.8v-4.2h4.4v4.2c0 .5-.2.7-.8.8v.5c.8-.1 1.5-.1 2.2-.1.7 0 1.4.1 2.2.1v-.5c-.6 0-.8-.3-.8-.8v-9.5c0-.5.2-.7.8-.8V83c-.8.1-1.5.1-2.2.1-.7 0-1.4-.1-2.2-.1v.5c.6 0 .8.3.8.8v3.6h-4.4v-3.6c0-.5.2-.7.8-.8V83c-.8.1-1.5.1-2.2.1-.7 0-1.4-.1-2.2-.1v.5c.6 0 .8.2.8.7m94.4 6.6h-.5c.1 1.1.1 2.4.1 3.8 1.3.4 2.7.7 4.1.7 3 0 5.5-1.3 5.5-3.8 0-2.4-1.8-3.1-3.6-3.7l-2-.6c-.8-.2-1.7-.5-1.7-1.6 0-1.3 1.6-1.6 2.5-1.6 1.7 0 3.1.8 3.5 2.5h.5c-.1-1-.1-2.1-.1-3.5-1.1-.4-2.3-.6-3.5-.6-2.8 0-5.6.9-5.6 3.8 0 2.2 1.9 3 3.8 3.6l1.3.4c.9.3 2 .6 2 1.7 0 1.4-1.6 1.7-2.7 1.7-1.9.2-3.2-.8-3.6-2.8m-14.1-6.6v9.5c0 .5-.2.7-.8.8v.5c.6-.1 1.2-.1 1.8-.1.6 0 1.1.1 1.7.1v-.5c-.5 0-1.1-.1-1.1-1v-7.9l6 9.4h1.9V84.2c0-.5.2-.7.8-.8V83c-.6.1-1.2.1-1.8.1-.6 0-1.1-.1-1.7-.1v.5c.5 0 1.1.1 1.1 1v6.6l-5-8.1c-.6.1-1.1.1-1.6.1-.7 0-1.4-.1-2.2-.1v.5c.7 0 .9.2.9.7m-21.9 0v9.5c0 .5-.2.7-.8.8v.5c.8-.1 1.5-.1 2.2-.1.7 0 1.4.1 2.2.1v-.5c-.6 0-.8-.3-.8-.8v-9.5c0-.5.2-.7.8-.8V83c-.8.1-1.5.1-2.2.1-.7 0-1.4-.1-2.2-.1v.5c.6 0 .8.2.8.7M63 93.4v-8.6l1.1-.1c1.6 0 2.6.6 2.6 2.2 0 1.5-.7 2.6-2.6 2.6-.2 0-.5-.1-.6-.1-.2 0-.3 0-.3.2 0 .4 1.3.8 2.2.8 2.3 0 4-1.4 4-3.6 0-2.1-1.2-3.7-4.6-3.7h-5.4v.5c.6 0 .8.3.8.8v8.9c0 .9-.1 1.2-.8 1.3v.5c.8-.1 1.5-.1 2.2-.1.7 0 1.4.1 2.5.1v-.5c-1-.3-1.1-.5-1.1-1.2m21.9-8.8c2.7 0 3.5 3.1 3.5 5.2 0 2-1.1 3.6-2.9 3.6-2.6 0-3.5-3.1-3.5-5.2 0-1.5.7-3.6 2.9-3.6m.2 10.5c3.3 0 6-2.3 6-6.1 0-3.2-2.2-6.2-5.9-6.2-3.3 0-5.9 2.5-5.9 5.9 0 3.4 2.2 6.4 5.8 6.4m-14-45.8c.6-2.6.1-5 .1-5-1.7 2.4-3.3 4.2-4.8 5.6-4.1.2-7.2-.3-7.2-.3s1.8 1.8 3.9 2.9c-2.8 1.7-4.6 1.9-4.6 1.9 12.1.3 19.3-7.6 19.3-7.6-2 1.1-4.4 2-6.7 2.5m-11.9.2s-2.5-1-6-3c.1-2.1.5-4.8 1.1-8.2 0 0-2.8 2.8-6.4 4.9-2.1-1.5-4.3-3.2-6.5-5.1 0 0 1 3.2 3.1 6.8-1.9.7-3.9 1-5.7.6 0 0 2.1 2.7 8.7 3.8 1.8 2.2 4 3.9 6.6 4.6 0 0-.8-.9-1-4.1 1.9 0 3.9-.1 6.1-.3m-14.5-24c-2.9.1-5.2.3-7 .7-.5-3.1-.6-5.4-.6-5.4-1.4 2.2-2.4 4.3-3 6.3-2 .8-2.6 1.5-2.6 1.5.3 1.1 1 2.1 1.8 3.1-.3 4.7 1.3 7.8 1.3 7.8.3-1.6 1-3.3 1.9-4.8 2.5 2 5 3.3 5 3.3-1.2-2.1-2-4.4-2.7-6.7 2.8-3.4 5.9-5.8 5.9-5.8m-6.8-11.3c1.4-1.3 3.1-2.8 5.2-4.3 0 0-1.9 0-3.9.5 1.3-3.2 2.8-5 2.8-5s-8.5 6-10.1 16.8c0 0 .7-1.9 3.1-4.9 1 2.1 2.1 3.5 2.1 3.5 0-2.5.3-4.7.8-6.6M66 5.3c-2.2-1.1-4.4-1.9-6.4-2.5C62.1.7 64.5.1 64.5.1 60.5 0 57 .7 54 1.9c-4.4-.4-7.2.4-7.2.4.7.5 1.2 1.4 1.8 2.4C44.9 7.2 43 9.9 43 9.9c2.2-1.1 4.6-1.9 6.9-2.6.3.5.5.9.8 1.4 1.5 2.4 3.2 4.1 3.2 4.1.6-2.9 1.6-5.1 2.8-6.9 5.4-.7 9.3-.6 9.3-.6m18.7 12.6c-1.4-3.1-3.4-5.5-5.5-7.2-1.9-3.9-4-5.7-4-5.7.2.9 0 1.9-.3 3C70.2 5.6 66 5.3 66 5.3c2.7 1.8 5.1 3.9 7.1 6.2-1.9 3.1-4.4 5.7-4.4 5.7 3.3-.7 5.9-1.1 8-1.1 3.2 4.5 5 8.2 5 8.2.1-3-.2-5.7-.7-7.9 2.8.4 3.7 1.5 3.7 1.5m1.4 11.2c-.8 1.3-2 2.2-3.5 2.8-.2-4-.8-7.6-.8-7.6-1.2 3.3-2.5 6.3-3.8 8.8-4.3.6-8.6-.1-8.6-.1 2.3 2.8 4.2 4.5 5.6 5.6-2.2 3.7-3.8 5.7-3.8 5.7 3.1-.7 5.5-1.9 7.5-3.3.8.5 1.5 1.2 2.2 2.2 0 0 1.3-1.8 1.7-5.9 3-4.1 3.5-8.2 3.5-8.2m-27 1.5c-1.6 2.5-3.3 5.1-4.7 7.8 0 0-1.2-4-1.6-9.7-2.7-.9-5.4-1.9-8.1-3.1 0 0 3.1-1.6 8-3.4.1-3 .6-6.1 1.4-9.3 0 0 1.6 3 4.5 7.2 3.1-1 6.5-2 10.2-2.8 0 0-2.7 3.4-6.1 8.2 2 2.5 4.2 5.1 6.8 7.6-.1-.1-4.5-.9-10.4-2.5" clip-path="url(#b)" fill="#0e2050"/></g></svg>