<svg width="322" height="311" viewBox="0 0 90 87" fill="none" xmlns="http://www.w3.org/2000/svg">
<path d="M28.1858 25.3614C28.1858 19.8898 30.8622 15.0333 34.974 12.0224L33.884 8.30988C28.2505 11.9036 24.5165 18.1954 24.5165 25.3614C24.5165 32.9482 28.7038 39.553 34.8877 43.0064L36.1503 39.4882C31.3802 36.5959 28.1858 31.3402 28.1858 25.3614ZM55.5329 8.32067L54.4429 12.0331C58.5547 15.0441 61.2312 19.9006 61.2312 25.3722C61.2312 31.351 58.0367 36.5959 53.2666 39.499L54.5293 43.0172C60.7131 39.5638 64.9005 32.959 64.9005 25.3722C64.9005 18.1954 61.1556 11.9036 55.5329 8.32067Z" fill="#FF6900"/>
<path d="M41.0126 39.9631H38.4657L42.394 28.9876L35.0014 3.83119L43.9804 0V26.6565L41.0126 39.9631Z" fill="black"/>
<path d="M46.7864 28.9876L50.7147 39.9631H48.1677L45.1999 26.6565V0L54.1789 3.83119L46.7864 28.9876Z" fill="black"/>
<path d="M36.4583 45.5858L37.8073 41.7978H51.3838L52.7328 45.5858H36.4583Z" fill="black"/>
<path d="M44.5956 29.2574L46.9806 39.9631H42.2105L44.5956 29.2574Z" fill="black"/>
<path d="M16.5469 73.1704H21.2847V70.8824H16.5469V68.7996H21.6948V66.5117H14V77.6383H21.8135V75.3504H16.5469V73.1704Z" fill="black"/>
<path fill-rule="evenodd" clip-rule="evenodd" d="M49.3117 77.8865C52.5817 77.8865 54.697 75.6741 54.697 72.0696C54.697 68.465 52.5817 66.2526 49.3117 66.2526C46.0417 66.2526 43.9265 68.465 43.9265 72.0696C43.9265 75.6741 46.0417 77.8865 49.3117 77.8865ZM49.3117 68.5514C50.8982 68.5514 52.15 69.6953 52.15 72.0804C52.15 74.4654 50.8982 75.6094 49.3117 75.6094C47.7253 75.6094 46.4734 74.4654 46.4734 72.0804C46.4626 69.6953 47.7253 68.5514 49.3117 68.5514Z" fill="black"/>
<path fill-rule="evenodd" clip-rule="evenodd" d="M56.2186 77.6383H58.7548V73.8826H60.5679C62.7587 73.8826 64.5609 72.6092 64.5609 70.1918C64.5609 67.7743 62.7694 66.5009 60.5679 66.5009H56.2186V77.6383ZM58.744 68.7996H60.4276C61.5607 68.7996 62.0032 69.3823 62.0032 70.2025C62.0032 71.0119 61.5607 71.6055 60.4276 71.6055H58.744V68.7996Z" fill="black"/>
<path d="M32.6811 66.5117H30.1342V73.1272C30.1342 74.6165 29.3679 75.5446 27.9758 75.5446C26.5728 75.5446 25.8173 74.6273 25.8173 73.1272V66.5117H23.2704V73.2675C23.2704 76.3648 25.418 77.8326 27.9758 77.8326C30.5335 77.8326 32.6811 76.354 32.6811 73.2675V66.5117Z" fill="black"/>
<path d="M28.1808 80.2608H26.7023V86.7684H31.2673V85.4302H28.1808V80.2608Z" fill="black"/>
<path d="M61.6795 84.1567V82.8185H58.9167V81.599H61.9277V80.2608H57.4274V86.7684H61.9924V85.4302H58.9059V84.1567H61.6795Z" fill="black"/>
<path d="M55.1071 84.1243C55.1071 84.9985 54.6646 85.5381 53.8444 85.5381C53.0242 85.5381 52.5817 84.9985 52.5817 84.1243V80.2608H51.0924V84.2107C51.0924 86.0237 52.3443 86.8763 53.8444 86.8763C55.3445 86.8763 56.5964 86.013 56.5964 84.2107V80.2608H55.1071V84.1243Z" fill="black"/>
<path d="M49.0203 84.4373V84.9014C48.6966 85.2683 48.1785 85.5381 47.531 85.5381C46.4086 85.5381 45.5561 84.8798 45.5561 83.5092C45.5561 82.1386 46.4734 81.4803 47.3583 81.4803C48.1677 81.4803 48.6858 81.8688 48.9016 82.5919L50.3262 82.171C49.9916 80.9515 49.0419 80.1313 47.3799 80.1313C45.5992 80.1313 44.0668 81.4155 44.0668 83.4984C44.0668 85.5813 45.5776 86.8655 47.3907 86.8655C48.8045 86.8655 49.6786 86.3043 50.3909 85.4302V83.2502H47.0022V84.4373H49.0203Z" fill="black"/>
<path fill-rule="evenodd" clip-rule="evenodd" d="M70.6693 66.5117H67.9712L63.4601 77.6383H66.3416L67.151 75.523H71.5003L72.3097 77.6383H75.1911L70.6693 66.5117ZM68.0144 73.2351L69.3202 69.814L70.6261 73.2351H68.0144Z" fill="black"/>
<path fill-rule="evenodd" clip-rule="evenodd" d="M39.8686 80.2608L37.2246 86.7684H38.9081L39.383 85.5381H41.9299L42.4048 86.7684H44.0883L41.4551 80.2608H39.8686ZM39.8902 84.1891L40.6565 82.1926L41.4227 84.1891H39.8902Z" fill="black"/>
<path d="M33.4581 84.1567H36.2317V82.8185H33.4581V81.599H36.4691V80.2608H31.9688V86.7684H36.5447V85.4302H33.4581V84.1567Z" fill="black"/>
<path fill-rule="evenodd" clip-rule="evenodd" d="M40.419 77.6383H43.2789L40.7968 73.1704C41.9299 72.5336 42.7177 71.53 42.7177 70.073C42.7177 67.893 40.9586 66.5117 38.6923 66.5117H34.2891V77.6383H36.8361V73.6344H38.2067L40.419 77.6383ZM36.8361 68.7996H38.7463C39.7931 68.7996 40.1924 69.3392 40.1924 70.073C40.1924 70.8069 39.7931 71.3465 38.7463 71.3465H36.8361V68.7996Z" fill="black"/>
<path d="M35.6058 59.691C35.3575 59.8961 35.0554 59.9932 34.7964 59.9608C34.4726 59.9285 34.2675 59.7882 33.9438 59.3889L32.0552 57.0686L31.0407 57.8996L33.0912 60.4249C33.5229 60.9645 34.0301 61.2451 34.6129 61.2991C34.6776 61.3099 34.7532 61.3099 34.8179 61.3099C35.3899 61.3099 35.9187 61.1156 36.426 60.7055C36.9979 60.2414 37.3109 59.7018 37.3864 59.0543C37.4512 58.4715 37.2785 57.9211 36.8361 57.3923L34.7856 54.867L33.7711 55.698L35.6597 58.0183C35.9835 58.4176 36.0806 58.6442 36.0482 58.9788C36.0159 59.2162 35.854 59.4752 35.6058 59.691Z" fill="black"/>
<path d="M44.5956 60.1875C48.157 60.1875 51.4485 61.8387 53.3803 64.2453L54.0602 63.4143C51.9342 60.8674 48.4483 59.1514 44.6064 59.1514C40.7644 59.1514 37.2785 60.8674 35.1525 63.4143L35.8324 64.2453C37.7426 61.8387 41.0234 60.1875 44.5956 60.1875Z" fill="black"/>
<path d="M31.0947 56.0325C34.7963 52.8381 39.588 51.079 44.5956 51.079C49.6031 51.079 54.3948 52.8381 58.0965 56.0325C58.485 56.3671 58.8519 56.7124 59.1973 57.0686L59.8988 56.2052C59.5534 55.8599 59.1973 55.5253 58.8195 55.2015C54.9236 51.8344 49.8729 49.989 44.6064 49.989C39.3398 49.989 34.2891 51.8452 30.3932 55.2015C30.0155 55.5253 29.6593 55.8599 29.314 56.2052L30.0155 57.0686C30.3392 56.7124 30.7169 56.3671 31.0947 56.0325Z" fill="black"/>
<path d="M56.4992 56.9714C56.564 56.788 56.6072 56.5074 56.2942 56.2592L56.0891 56.1081C55.7762 55.8707 55.528 55.9678 55.3445 56.0865L50.6607 59.1191L51.8802 59.8098L54.8696 57.878L54.3516 59.6155L53.8983 59.2702L53.1105 59.8313L54.0818 60.5544L53.8552 61.3314L54.9236 62.3135L56.4992 56.9714Z" fill="black"/>
<path d="M42.5559 52.3848L39.2643 53.0539C39.1132 53.0863 38.9945 53.1618 38.9189 53.2698C38.8434 53.3777 38.8218 53.518 38.8542 53.6691L39.5125 56.9067C39.6204 57.4355 39.8578 57.8132 40.214 58.0291C40.4514 58.1802 40.732 58.2449 41.0666 58.2449C41.2284 58.2449 41.4119 58.2233 41.5954 58.1909L43.6567 57.7701L43.4084 56.5506L41.4119 56.9606C41.0018 57.047 40.8723 57.0038 40.7752 56.5398L40.6996 56.1944L43.0199 55.7196L42.7717 54.5108L40.4514 54.9857L40.2787 54.1223L42.8041 53.6043L42.5559 52.3848Z" fill="black"/>
<path d="M48.9556 54.1547L50.9305 54.6619L51.2435 53.464L49.2146 52.9352C48.103 52.6438 47.3368 53.0647 47.067 54.1115L46.236 57.306C46.1928 57.4571 46.2144 57.5974 46.2791 57.7053C46.3439 57.824 46.4626 57.8996 46.6137 57.9427L47.3691 58.137L47.8979 56.0649L50.1859 56.6585L50.4988 55.4713L48.2109 54.8778L48.2973 54.5324C48.416 54.0792 48.5455 54.0468 48.9556 54.1547Z" fill="black"/>
<path d="M64.0969 80.5737V82.2033H64.4314V80.5737H65.025V80.2716H63.4925V80.5737H64.0969Z" fill="black"/>
<path d="M66.8165 80.2608L66.2229 81.8148L65.6293 80.2608H65.2624V82.2033H65.6078V81.0378L66.0502 82.2033H66.3848L66.8273 81.0378V82.2033H67.1726V80.2608H66.8165Z" fill="black"/>
</svg>